<svg xmlns="http://www.w3.org/2000/svg" viewBox="0 0 335.27 512.37"><defs><style>.cls-1{fill:#636363;}</style></defs><title>favicon</title><g id="Camada_2" data-name="Camada 2"><g id="Camada_1-2" data-name="Camada 1"><path class="cls-1" d="M4.8,511.27C3.2,466,1.61,421.28,0,376L330.49,378c1.59,44.76,3.18,89.35,4.78,134.42Zm60.25-70.2c2.59-1.68,5-3.06,7.22-4.79a5.11,5.11,0,0,0,1.89-3.39c0-8.45-.18-16.91-.49-25.35a4.59,4.59,0,0,0-1.86-3.16c-5.49-3.66-11.08-7.17-16.7-10.62a7.89,7.89,0,0,0-3.74-1.19c-8.84-.23-17.68-.32-26.53-.43a21.9,21.9,0,0,0-2.42.24q-.48,49.17-1,97.82c9.28,0,18.11,0,26.94,0a7.57,7.57,0,0,0,2.77-.8c7.57-3.25,15.09-6.62,22.71-9.75,2.08-.86,2.67-2,2.59-4.13-.27-8-.33-15.93-.63-23.89a4.92,4.92,0,0,0-1.64-3.08C71.37,446,68.36,443.74,65.05,441.07Zm73.77-41.87c-.5,29.11-1,58-1.5,87.4H192.5q1.14-42.06,2.3-84.36ZM309,491c-.33-.94-.51-1.58-.78-2.18-6.57-14.9-13.11-29.81-19.76-44.67a4.27,4.27,0,0,1,.51-4.75c5.56-8.08,11-16.22,16.51-24.34,3-4.46,6-8.93,9.12-13.58a11.84,11.84,0,0,0-1.75-.46c-6.79-.4-13.57-.83-20.36-1.09-.66,0-1.62.87-2,1.58-5.79,10.53-11.5,21.12-17.26,31.68-1.54,2.83-3.17,5.62-5.1,9V399.35h-15c-.5,29.8-1,59.66-1.53,89.77h18.51c0-6.65.43-13.18-.12-19.63-.54-6.26,3.28-10.39,5.89-15.94.61,1.65,1,2.61,1.34,3.6q5.06,15.78,10.06,31.57c.43,1.39.81,2.37,2.65,2.34C296.18,490.94,302.4,491,309,491Zm-63-91.32c-1.37,0-2,0-2.71,0-13.27.81-26.54,1.68-39.82,2.42-2.45.13-2.42,1.53-2.45,3.31q-.57,35.57-1.2,71.13c-.05,2.8,0,5.6,0,8.6l44.2,5.22c.53-6.5,1.05-12.83,1.59-19.49-1.26,0-2.31,0-3.35,0-7.48.16-15,.19-22.44.56-3,.15-3.78-.88-3.78-3.76,0-16.52-.08-33-.13-49.57,0-1,.09-2.06.15-3.17h30ZM82.74,484.43l48.47,3.73V466.91H99.4c1.86-24.54,3.66-48.4,5.47-72.32-5.82,1-11.35,1.9-16.9,2.77-1.64.25-2.52.79-2.58,2.71-.24,8-.71,15.91-1,23.87q-.87,24.32-1.63,48.63C82.64,476.43,82.74,480.3,82.74,484.43Z"/><path class="cls-1" d="M3.05,168.56V8.85c3.25,0,6.42-.1,9.58,0Q42.21,9.91,71.78,11c10.58.39,21.17.82,31.75,1.13,1.94.06,2.47.75,2.45,2.61q-.54,56.72-1,113.42c-.11,12.25-.27,24.5-.28,36.74,0,2.38-.71,3.17-3.14,3.18q-47.83.21-95.65.58C5.08,168.69,4.22,168.61,3.05,168.56ZM35.42,56.66c-.51,21.06-1,41.76-1.54,63H73.34V60Z"/><path class="cls-1" d="M259.81,256.15l40.5,1c1.23,10.35,2.44,20.51,3.7,31.07H256.87c.72,10.41,1.42,20.42,2.12,30.53,4.83,0,9.37.07,13.9,0q24.93-.51,49.85-1.13c1.63,0,2.43.29,2.55,2.17.82,13.37,1.76,26.74,2.66,40.1a14.13,14.13,0,0,1-.14,1.75c-4.44-.23-8.77-.42-13.09-.68-14.65-.88-29.29-1.81-43.93-2.7-13.19-.8-26.37-1.62-39.57-2.3-2.46-.13-2.22-1.63-2.24-3.16q-.42-27-.82-53.93-.6-39.21-1.23-78.42c-.16-9.42-.49-18.84-.72-28.27,0-.75.09-1.51.17-2.64L327.06,186c1,12.1,2,24,3,36.43l-70.22,5.74Z"/><path class="cls-1" d="M212.71,349.15H185.05V310.32l-35.67-1.71v55.48L120.26,363c-1.43-57.2-2.85-114.18-4.28-171.38h32.66v91.53l34.08-1.55c0-1.31,0-2.52,0-3.73l-1.11-92.15c-.05-3.81,0-3.8,3.71-3.87l27.12-.49c1.05,0,2.1,0,3.55,0C214.89,237.43,213.8,293.25,212.71,349.15Z"/><path class="cls-1" d="M216.38.14c1,11.89,2,23.74,3,36.09h-3.63c-21.38-.07-42.77-.09-64.15-.28-2.95,0-3.76.78-3.75,3.74,0,9.52-.32,19-.51,28.57,0,1,0,2.08,0,3.15,5.43,0,10.55.09,15.67,0,8.06-.17,16.12-.46,24.19-.73,1.52,0,2.59.13,2.76,2.06.78,8.7,1.67,17.39,2.56,26.49H147.91c0,1.53,0,2.66,0,3.8.18,21.29.31,42.58.58,63.86,0,2.75-.57,3.75-3.52,3.51-7-.58-14-.81-21-1.22-1.73-.1-3.46-.31-5.52-.5,0-1.11,0-2.06,0-3q-.61-51.61-1.23-103.23c-.23-16.91-.63-33.81-.94-50.72-.08-4-.07-4,3.81-4.25Q148,5.29,175.91,3q19.17-1.53,38.35-3A19.2,19.2,0,0,1,216.38.14Z"/><path class="cls-1" d="M305.48,99.28H261.05c-.08,1.51-.22,2.82-.21,4.12.23,21.18.43,42.37.79,63.55,0,2.88-.77,3.65-3.6,3.42-6.88-.56-13.77-.79-20.66-1.19-1.82-.11-3.63-.33-6.07-.55,0-7.63.06-15.09,0-22.55q-.36-36.15-.81-72.3-.43-31.33-1.11-62.66c-.06-2.82.83-3.51,3.57-3.71,21.21-1.55,42.41-3.3,63.61-5L327.33,0c.56,0,1.13,0,2.11,0,1,12,2,23.82,3,36.21h-4.06L264.85,36C261,36,261,36,261,39.78c0,10.48,0,21,0,31.92.72,0,1.74,0,2.76,0,11.85-.33,23.7-.57,35.55-1.06,2.94-.13,3.79.71,4,3.64.43,6.67,1.33,13.31,2,20C305.38,95.77,305.39,97.32,305.48,99.28Z"/><path class="cls-1" d="M6.6,233.42V192.8c3.77-.28,7.42-.59,11.09-.81,17.25-1.05,34.51-2.05,51.76-3.11q16.44-1,32.86-2.11c3.5-.24,3.54-.27,3.54,3.33q0,19.68,0,39.35c0,3.88,0,3.89-3.76,3.89q-13,0-25.95,0c-1,0-2.08.08-3.25.13-.25,4.86-.56,9.49-.71,14.12-.45,14-.83,28-1.26,42Q70,319.1,69.09,348.67c-.24,6.86-.34,7-7.13,7.53-8.12.64-16.25,1-24.72,1.54.39-41.53.77-82.76,1.16-124.32Z"/><path class="cls-1" d="M39.23,451.08c2.86-.32,4.89-.81,6.88-.68a33,33,0,0,1,6,1.37c.45.12.8.59,1.25.73,6.6,2.12,7.27,7.44,7,13.16a3.55,3.55,0,0,1-1.65,2.52c-2.51,1.25-5.11,2.72-7.81,3.08-3.47.46-7.07,0-10.6-.26-.41,0-1-1.29-1-2C39.19,463.1,39.23,457.18,39.23,451.08Z"/><path class="cls-1" d="M40,430.93c0-5.84-.06-11.75.09-17.65A2.85,2.85,0,0,1,42,411.37a17.26,17.26,0,0,1,14.48,3.33,3.94,3.94,0,0,1,1.37,2.36c.36,2.49.49,5,.62,7.54a2,2,0,0,1-.55,1.52C52.6,430.05,47.13,433.5,40,430.93Z"/><path class="cls-1" d="M176.67,427.52V460.6H154.16c.5-11.9,1-23.37,1.49-35.18Z"/></g></g></svg>